<?xml version="1.0" standalone="no"?><!DOCTYPE svg PUBLIC "-//W3C//DTD SVG 1.1//EN" "http://www.w3.org/Graphics/SVG/1.1/DTD/svg11.dtd"><svg t="1583321252002" class="icon" viewBox="0 0 1024 1024" version="1.1" xmlns="http://www.w3.org/2000/svg" p-id="57988" xmlns:xlink="http://www.w3.org/1999/xlink" width="200" height="200"><defs><style type="text/css"></style></defs><path d="M107.84 835.97c-0.4095 0.045-0.8185 0.065-1.2275 0.065-0.557-0.01-1.113-0.05-1.665-0.125-7.848-0.875-13.587-8.02-12.7225-15.835 0.1625-1.605 4.7985-40.12 43.692-103.7 33.6575-55.025 92.254-94.94 109.817-106.1 32.644 24.74 73.342 39.465 117.4525 39.465 44.088 0 84.767-14.72 117.4015-39.465 17.559 11.185 76.152 51.075 109.802 106.1 38.88 63.58 43.515 102.095 43.685 103.695 0.055 0.52 0.085 1.045 0.085 1.565 0 7.91-6.535 14.42-14.48 14.42h-0.025c-0.49 0-1.025-0.02-1.505-0.085H107.84z m726.995-437.8255h0.04c5.065 0 9.235-4.1355 9.26-9.177V359.145c0-5.065-4.17-9.1765-9.3-9.1765h-1.455v-0.0235h-244.935c-18.37-53.885-56.725-87.129-56.725-87.129v-1.204h-0.21v-13.506c0-7.6195 6.3-13.89 13.95-13.89h369.295c7.655 0 13.95 6.2705 13.95 13.89v18.1365l-0.115-0.005V803.09c0 0.08 0.02 0.15 0.02 0.23v22.76c-0.005 5.085-4.205 9.265-9.31 9.26h-226.965c-5.145 0-9.31-4.15-9.31-9.26v-4.56c-0.98-15.26-7.135-62.53-45.15-124.845-36.07-59.15-98.6-101.97-98.6-101.97s21.565-21.66 38.905-62.08h72.925c0.24 0.02 0.47 0.075 0.725 0.075h182.75c5.065 0 9.24-4.135 9.26-9.175v-29.8245c0-5.0655-4.165-9.177-9.3-9.177h-241.065c5.395-24.9705 7.845-53.8805 4.72-86.4765h52.975c0.315 0.0325 0.625 0.0975 0.95 0.0975h182.715z m0.09 206.4805h-184.26c-5.1 0-9.3 4.18-9.3 9.26v29.515c0 5.08 4.2 9.26 9.3 9.26h184.26c5.105 0 9.3-4.18 9.3-9.26v-29.515c0-5.08-4.195-9.26-9.3-9.26z m-471.7645 5.65c-103.2135 0-187.198-82.235-187.1935-183.3005 0-101.0825 83.9805-183.32 187.198-183.32 103.195 0 187.165 82.2375 187.165 183.32 0 101.0505-83.9465 183.2805-187.1695 183.3005z" fill="#707070" p-id="57989"></path></svg>