<?xml version="1.0" standalone="no"?><!DOCTYPE svg PUBLIC "-//W3C//DTD SVG 1.1//EN" "http://www.w3.org/Graphics/SVG/1.1/DTD/svg11.dtd"><svg t="1582810017601" class="icon" viewBox="0 0 1557 1024" version="1.1" xmlns="http://www.w3.org/2000/svg" p-id="1842" xmlns:xlink="http://www.w3.org/1999/xlink" width="304.1015625" height="200"><defs><style type="text/css"></style></defs><path d="M458.789838 297.976905s-47.297921 47.297921-94.595843 73.311779c0 0 120.6097 104.055427 302.706698 113.515011l26.013857-127.704388s-106.420323 42.568129-234.124712-59.122402" fill="#B3B3B3" p-id="1843"></path><path d="M470.614319 297.976905s-47.297921 47.297921-94.595843 73.311779c0 0 120.6097 104.055427 302.706697 113.515011l26.013857-127.704388s-106.420323 42.568129-234.124711-59.122402" fill="#E5E5E5" p-id="1844"></path><path d="M430.411085 553.385681l-78.04157-18.919168 198.65127-37.838337 56.757506 73.311778z" fill="#FFFFFF" p-id="1845"></path><path d="M473.688684 471.300139L416.931178 483.124619l33.108545 16.554272-35.473441 11.824481 21.284064 18.919168-23.64896 18.919169c11.82448 11.82448-11.82448 28.378753-11.824481 28.378753l21.284065 14.189376L412.201386 677.046097c9.459584 7.094688-16.554273 4.729792-16.554273 4.729792l30.743649 9.459584H388.552425l37.838337 11.824481H405.106697l21.284065 7.094688c-14.189376 9.459584-11.82448 30.743649-11.82448 30.743649l-21.284065 14.189376 30.743649 11.824481L412.201386 802.385589l-16.554273 23.648961 21.284065 9.459584-16.554273 16.554272c11.82448 9.459584 11.82448 26.013857 11.824481 26.013857l-18.919169 7.094689 21.284065 4.729792-18.919169 7.094688 21.284065 4.729792-4.729792 28.378753h593.588914V662.856721L473.688684 471.300139z" fill="#DADADA" p-id="1846"></path><path d="M567.575058 461.154734l-156.083141-2.364896s574.669746 241.2194 624.332563 222.300231l130.069284-59.122402L567.575058 461.154734z" fill="#BEBEBE" p-id="1847"></path><path d="M977.81358 929.404157h236.489607V560.48037L982.543372 669.265589v26.013857l-9.459584 16.554272 21.284064 7.094688h-16.554272L947.069931 723.658199l30.743649 2.364896-26.013857 4.729792 26.013857 4.729792-16.554273 4.729792 16.554273 4.729792 2.364896 44.933026-14.189377 9.459584 23.648961 7.094688-23.648961-2.364896 16.554273 7.094688-4.729792 42.56813 16.554272 7.094688-30.743649 7.094688 30.743649 11.82448-23.648961 4.729793h18.919169l-7.094688 14.189376z" fill="#767676" p-id="1848"></path><path d="M1213.191686 503.722864l-402.032333-132.43418s-305.071594 73.311778-399.667436 52.027713l574.669746 245.949192 227.030023-104.055427v-61.487298z" fill="#FFFFFF" p-id="1849"></path><path d="M444.600462 496.628176l527.371824 184.461893L425.681293 506.08776zM425.681293 546.290993l534.466513 160.812933-546.290993-158.448037zM418.586605 558.115473L945.95843 707.103926l-532.101617-144.25866zM428.046189 595.953811l543.926097 153.718244V780.415704L425.681293 607.778291zM425.681293 657.441109v11.82448l546.290993 186.82679v-9.459585zM969.60739 815.889145l-543.926097-196.286374v33.108545l546.290993 191.556582zM461.154734 631.427252l498.993072 158.448037-7.094688 4.729792zM435.140878 707.103926l548.655889 172.637413L425.681293 711.833718zM425.681293 730.752887L983.796767 898.660508l-2.364896 7.094688zM413.856813 749.672055l567.575058 167.907622 2.364896-4.729792-555.750578-167.907622zM423.316397 768.591224l536.831409 148.988453-546.290993-120.6097z" fill="#BEBEBE" p-id="1850"></path><path d="M417.546051 806.169423l553.385681 122.974595L412.816259 808.534319z" fill="#BEBEBE" p-id="1851"></path><path d="M405.414134 818.561478l503.722864 106.420323-11.824481 4.729793L400.684342 823.29127z" fill="#BEBEBE" p-id="1852"></path><path d="M423.316397 830.078522l439.87067 99.325635-449.330254-92.230947zM413.856813 856.092379l399.667436 73.311778-392.572748-49.662818z" fill="#BEBEBE" p-id="1853"></path><path d="M425.681293 879.741339l290.882217 37.838338L425.681293 886.836028zM416.221709 905.755196c4.729792 0 189.191686 23.648961 189.191686 23.648961h-193.921478l4.729792-23.648961z" fill="#BEBEBE" p-id="1854"></path><path d="M347.639723 752.036952s-47.297921 59.122402 28.378753 101.690531c0 0-18.919169 4.729792-33.108545 2.364896-16.554273-4.729792-21.284065-9.459584-21.284065-9.459585l-52.027714-61.487297s-9.459584-37.838337 11.824481-66.217091c0 0 23.648961 28.378753 66.21709 33.108546" fill="#DFDFDF" p-id="1855"></path><path d="M328.720554 844.267898s-26.013857-14.189376-11.82448-49.662817c0 0-40.203233-11.82448-47.297922-37.838337 0 0 0 23.648961 9.459585 37.838337 11.82448 23.648961 33.108545 42.568129 49.662817 49.662817" fill="#BEBEBE" p-id="1856"></path><path d="M364.193995 863.187067s-33.108545 9.459584-52.027713-11.82448c-9.459584-14.189376-4.729792-30.743649-2.364896-44.933026H307.43649s-11.82448 23.648961 4.729792 47.297922c2.364896 4.729792 21.284065 21.284065 52.027713 9.459584z" fill="#CDCDCD" p-id="1857"></path><path d="M1050.013857 475.344111l115.879907 42.568129-16.554272 7.094688-115.879908-42.568129-9.459584 2.364896 61.487298 23.648961-16.554273 4.729792-61.487298-21.284065-16.554272 4.729793 108.785219 40.203233-16.554272 4.729792-108.78522-40.203233-16.554272 7.094688 137.163972 49.662817-16.554272 7.094689-137.163973-52.027714-14.189376 4.729792 33.108545 11.824481-18.919169 7.094688-30.743649-11.824481-16.554272 4.729793 137.163972 52.027713h-4.729792l-134.799076-49.662817h-4.729792l170.272517-61.487298 2.364896 2.364896z" fill="#D0D0D0" p-id="1858"></path><path d="M837.17321 397.30254l-167.907621 37.838338-2.364896-2.364896 167.907621-35.473442zM848.997691 397.30254l-167.907622 37.838338v-2.364896l167.907622-35.473442z" fill="#DFDFDF" p-id="1859"></path><path d="M848.997691 397.30254l-167.907622 37.838338v-2.364896l167.907622-35.473442zM863.187067 397.30254l-167.907621 49.662818-2.364896-2.364896 167.907621-47.297922zM863.187067 409.127021l-167.907621 49.662817h-2.364896l167.907621-49.662817zM875.011547 409.127021l-167.907621 49.662817h-2.364896l167.907621-49.662817z" fill="#DFDFDF" p-id="1860"></path><path d="M875.011547 409.127021l-167.907621 49.662817h-2.364896l167.907621-49.662817zM886.836028 409.127021l-167.907622 49.662817h-2.364896l167.907622-49.662817z" fill="#DFDFDF" p-id="1861"></path><path d="M886.836028 409.127021l-167.907622 49.662817h-2.364896l167.907622-49.662817zM898.660508 423.316397l-167.907621 47.297922h-2.364896l167.907621-49.662818zM910.484988 423.316397l-167.907621 47.297922h-2.364896l167.907621-49.662818z" fill="#DFDFDF" p-id="1862"></path><path d="M910.484988 423.316397l-167.907621 47.297922h-2.364896l167.907621-49.662818zM922.309469 423.316397l-167.907621 47.297922h-2.364896l167.907621-49.662818z" fill="#DFDFDF" p-id="1863"></path><path d="M922.309469 423.316397l-167.907621 47.297922h-2.364896l167.907621-49.662818zM934.133949 423.316397l-167.907621 47.297922h-2.364896l167.907621-49.662818zM934.133949 435.140878l-167.907621 49.662817-2.364896-2.364896 167.907621-47.297921z" fill="#DFDFDF" p-id="1864"></path><path d="M934.133949 435.140878L780.415704 484.803695l-2.364896-2.364896 153.718245-47.297921z" fill="#DFDFDF" p-id="1865"></path><path d="M934.133949 435.140878L780.415704 484.803695l-2.364896-2.364896 153.718245-47.297921zM945.95843 435.140878l-153.718245 49.662817-2.364896-2.364896 156.083141-47.297921zM960.147806 435.140878L804.064665 484.803695l-2.364896-2.364896 156.083141-47.297921zM960.147806 446.965358L804.064665 496.628176l-2.364896-2.364897 156.083141-47.297921zM971.972286 446.965358L815.889145 496.628176l-2.364896-2.364897 156.083141-47.297921z" fill="#DFDFDF" p-id="1866"></path><path d="M971.972286 446.965358L815.889145 496.628176l-2.364896-2.364897 156.083141-47.297921zM983.796767 446.965358L827.713626 496.628176l-2.364896-2.364897 156.083141-47.297921z" fill="#DFDFDF" p-id="1867"></path><path d="M983.796767 446.965358L827.713626 496.628176l-2.364896-2.364897 156.083141-47.297921zM995.621247 458.789838l-156.083141 49.662818h-2.364896l156.083141-49.662818zM1007.445727 458.789838L851.362587 508.452656h-2.364896l156.08314-49.662818z" fill="#DFDFDF" p-id="1868"></path><path d="M1007.445727 458.789838L851.362587 508.452656h-2.364896l156.08314-49.662818zM1019.270208 458.789838l-153.718245 49.662818h-2.364896l153.718245-49.662818zM860.822171 534.466513l-70.946882 11.82448h2.364896l70.946882-11.82448zM872.646651 534.466513l-70.946882 11.82448h2.364896l70.946882-11.82448zM872.646651 546.290993l-70.946882 11.82448h2.364896l70.946882-11.82448zM884.471132 546.290993l-70.946883 11.82448h2.364896l70.946883-11.82448z" fill="#DFDFDF" p-id="1869"></path><path d="M884.471132 546.290993l-70.946883 11.82448h2.364896l70.946883-11.82448z" fill="#DFDFDF" p-id="1870"></path><path d="M884.471132 546.290993l-59.122402 11.82448h2.364896l59.122402-11.82448z" fill="#DFDFDF" p-id="1871"></path><path d="M884.471132 546.290993l-59.122402 23.648961h2.364896l59.122402-23.648961zM896.295612 546.290993l-59.122402 23.648961h2.364896l59.122402-23.648961zM896.295612 558.115473l-59.122402 23.648961h2.364896l59.122402-23.648961zM908.120092 558.115473l-59.122401 23.648961h2.364896l59.122401-23.648961z" fill="#DFDFDF" p-id="1872"></path><path d="M908.120092 558.115473l-59.122401 23.648961h2.364896l59.122401-23.648961zM919.944573 558.115473l-56.757506 23.648961 59.122402-23.648961z" fill="#DFDFDF" p-id="1873"></path><path d="M919.944573 558.115473l-56.757506 23.648961 59.122402-23.648961zM934.133949 569.939954l-59.122402 23.648961 2.364896 2.364896 56.757506-23.648961z" fill="#DFDFDF" p-id="1874"></path><path d="M931.769053 569.939954l-56.757506 23.648961 2.364896 2.364896 56.757506-23.648961zM945.95843 569.939954l-59.122402 23.648961 2.364896 2.364896 56.757506-23.648961z" fill="#DFDFDF" p-id="1875"></path><path d="M945.95843 569.939954l-59.122402 23.648961 2.364896 2.364896 56.757506-23.648961zM957.78291 569.939954l-59.122402 23.648961 2.364896 2.364896 59.122402-23.648961zM969.60739 569.939954l-59.122402 23.648961 2.364897 2.364896 59.122401-23.648961zM969.60739 581.764434l-59.122402 26.013857h2.364897l59.122401-23.648961zM981.431871 581.764434L922.309469 607.778291h2.364896l59.122402-23.648961z" fill="#DFDFDF" p-id="1876"></path><path d="M981.431871 581.764434L922.309469 607.778291h2.364896l59.122402-23.648961zM993.256351 581.764434l-59.122402 26.013857h2.364896l59.122402-23.648961zM993.256351 595.953811l-59.122402 23.64896h2.364896l59.122402-23.64896zM1005.080831 595.953811l-59.122401 23.64896h4.729792l56.757505-23.64896zM1016.905312 595.953811l-56.757506 23.64896h2.364896l56.757506-23.64896z" fill="#DFDFDF" p-id="1877"></path><path d="M1016.905312 595.953811l-56.757506 23.64896h2.364896l56.757506-23.64896zM1028.729792 595.953811l-56.757506 23.64896h2.364896l56.757506-23.64896zM1028.729792 607.778291l-56.757506 23.648961h2.364896l56.757506-23.648961zM652.711316 435.140878s63.852194 28.378753 99.325636 37.838337l-85.136259 23.648961s-101.690531-35.473441-120.6097-52.027714c0 0 49.662818-2.364896 106.420323-9.459584M766.226328 484.803695l96.960739 35.473441-82.771363 26.013857-99.325635-37.838337z" fill="#DFDFDF" p-id="1878"></path><path d="M435.140878 581.764434s-59.122402 9.459584-106.420324 63.852194c0 0 335.815242-2.364896 569.939954 59.122402l-463.51963-122.974596z" fill="#FFFFFF" p-id="1879"></path><path d="M127.704388 470.614319h-2.364896c-33.108545 0-54.39261 4.729792-92.230947 61.487298l-33.108545 47.297921 2.364896 2.364896s30.743649-44.933025 94.595843-35.473441c63.852194 9.459584 85.136259-16.554273 85.136259-16.554272-23.648961-11.82448-42.568129-33.108545-54.39261-59.122402" fill="#CDCDCD" p-id="1880"></path><path d="M191.556582 425.681293s-2.364896-4.729792-2.364896-2.364896c-4.729792 14.189376-35.473441 52.027714-66.21709 54.39261 11.82448 23.648961 30.743649 44.933025 54.39261 56.757506 0-4.729792 26.013857-80.406467 14.189376-108.78522" fill="#E1E1E1" p-id="1881"></path><path d="M0 582.497552S28.378753 539.929423 89.866051 549.389007c61.487298 9.459584 82.771363-16.554273 82.771362-16.554273S203.381062 452.428268 189.191686 421.684619c0 0-35.473441 52.027714-70.946882 52.027714-33.108545 0-54.39261 4.729792-89.866051 59.122401L0 582.497552z" fill="#FFFFFF" p-id="1882"></path><path d="M120.6097 465.884527s47.297921-9.459584 70.946882-44.933026c0 0 9.459584 26.013857-16.554273 87.501155 0 0-2.364896-9.459584-23.64896-26.013857 0 0-21.284065-11.82448-30.743649-16.554272" fill="#DFDFDF" p-id="1883"></path><path d="M59.122402 877.376443c-7.094688 18.919169-21.284065 37.838337-35.473441 52.027714h148.988452c4.729792-2.364896 7.094688-2.364896 7.094689-2.364896s78.04157-165.542725 7.094688-245.949192c0 0-70.946882 80.406467-132.43418 92.230947 2.364896 0 35.473441 26.013857 4.729792 104.055427" fill="#BEBEBE" p-id="1884"></path><path d="M160.19806 930.444711h16.554273c2.364896 0 2.364896-2.364896 2.364896-2.364896s80.406467-165.542725 7.094688-245.949191C252.429007 764.901986 174.387436 925.714919 174.387436 925.714919s-4.729792 2.364896-14.189376 4.729792" fill="#E1E1E1" p-id="1885"></path><path d="M934.133949 243.584296s175.002309-42.568129 108.78522-243.584296c0 0 40.203233 21.284065 63.852194 52.027714 21.284065 30.743649 21.284065 49.662818 21.284064 49.662817l-4.729792 201.016166s-42.568129 89.866051-125.339492 106.420324c2.364896 0 4.729792-87.501155-63.852194-165.542725" fill="#FFFFFF" p-id="1886"></path><path d="M1128.055427 73.311778s33.108545 75.676674-59.122402 122.974596c0 0 66.21709 94.595843 33.108545 163.177829 0 0 40.203233-44.933025 47.297922-94.595843 9.459584-73.311778 0-146.623557-21.284065-191.556582" fill="#ADADAD" p-id="1887"></path><path d="M1044.196212 2.364896s78.04157 40.203233 78.041571 108.785219C1122.237783 153.718245 1091.494134 175.002309 1065.480277 193.921478l4.729792 2.364896s54.39261-21.284065 59.122402-89.866051c0-9.459584-11.82448-70.946882-80.406466-106.420323L1044.196212 2.364896z" fill="#CDCDCD" p-id="1888"></path></svg>