<?xml version="1.0" standalone="no"?>
<!DOCTYPE svg PUBLIC "-//W3C//DTD SVG 20010904//EN"
 "http://www.w3.org/TR/2001/REC-SVG-20010904/DTD/svg10.dtd">
<svg version="1.0" xmlns="http://www.w3.org/2000/svg"
 width="1216.000000pt" height="1216.000000pt" viewBox="0 0 1216.000000 1216.000000"
 preserveAspectRatio="xMidYMid meet">
<metadata>
Created by potrace 1.11, written by Peter Selinger 2001-2013
</metadata>
<g transform="translate(0.000000,1216.000000) scale(0.100000,-0.100000)"
fill="#000000" stroke="none">
<path d="M8168 10073 c-18 -5 -24 -24 -11 -37 4 -3 8 -12 9 -19 2 -7 12 -48
25 -92 12 -44 23 -89 24 -100 3 -21 11 -63 20 -105 13 -63 16 -91 21 -175 11
-188 2 -313 -31 -445 -3 -11 -7 -28 -9 -37 -16 -69 -75 -211 -123 -293 -79
-137 -233 -295 -383 -395 -83 -54 -125 -78 -250 -140 -14 -7 -55 -22 -92 -34
-74 -25 -75 -28 -26 -81 46 -50 148 -194 148 -209 0 -5 4 -11 9 -13 12 -4 126
-222 157 -300 25 -62 72 -198 79 -228 1 -8 8 -35 15 -60 7 -25 13 -52 15 -60
7 -44 16 -88 20 -110 3 -14 8 -67 10 -119 3 -52 7 -96 10 -99 3 -3 0 -11 -6
-19 -16 -19 28 -18 75 2 20 8 38 15 41 15 30 -1 226 88 245 111 3 3 16 12 30
19 68 36 254 197 315 275 17 20 39 47 50 60 33 37 49 58 81 107 28 42 49 55
39 25 -2 -7 -6 -31 -9 -55 -3 -23 -17 -75 -30 -115 -14 -39 -20 -65 -13 -57
46 59 126 170 137 190 7 14 16 27 19 30 12 10 121 221 121 234 0 2 5 17 12 33
6 15 12 30 13 33 1 3 4 12 8 20 6 15 29 96 32 115 1 6 3 12 4 15 1 3 4 23 6
45 2 22 7 58 9 80 16 122 29 517 18 539 -3 5 -6 45 -8 90 -1 44 -5 95 -8 111
-3 17 -8 53 -11 80 -3 28 -8 61 -11 75 -3 14 -9 45 -14 70 -4 25 -11 56 -14
70 -3 14 -8 36 -11 49 -2 13 -12 49 -21 80 -9 31 -17 61 -19 66 -3 16 -24 70
-43 115 -11 24 -11 24 -6 -5 25 -145 24 -239 -7 -359 -19 -75 -26 -62 -21 37
9 170 6 253 -10 263 -5 3 -6 9 -3 14 3 5 1 11 -5 15 -5 3 -10 12 -10 20 0 8
-5 26 -12 42 -6 15 -12 30 -12 33 -9 39 -137 246 -163 263 -7 4 -13 12 -13 18
0 20 -160 163 -257 230 -57 38 -103 67 -103 63 0 -5 -5 -3 -12 4 -7 7 -14 11
-17 11 -4 -1 -14 -3 -23 -6z"/>
<path d="M3552 7722 c-104 -99 -315 -279 -396 -337 -16 -11 -34 -26 -41 -32
-8 -7 -16 -13 -19 -13 -3 0 -29 -18 -58 -40 -29 -22 -59 -40 -65 -40 -7 0 -13
-3 -13 -7 0 -5 -25 -21 -55 -38 -30 -16 -55 -32 -55 -36 0 -8 131 -107 178
-134 17 -11 32 -23 32 -27 0 -4 7 -8 15 -8 8 0 15 -4 15 -9 0 -5 13 -14 29
-21 16 -6 37 -19 48 -28 20 -18 35 -27 112 -69 25 -14 51 -29 56 -33 6 -5 46
-27 90 -50 44 -23 84 -45 88 -50 12 -11 -181 0 -251 14 -13 3 -20 1 -17 -5 4
-5 12 -9 20 -9 7 0 30 -9 52 -19 47 -24 222 -99 410 -177 79 -32 143 -61 143
-64 0 -3 -51 -4 -112 -2 -291 6 -494 8 -505 4 -16 -5 -7 -22 11 -22 8 0 30 -7
50 -15 20 -8 38 -15 41 -15 3 1 18 -6 33 -14 45 -24 121 -56 134 -57 21 -1
-24 -16 -67 -22 -22 -4 -53 -10 -70 -15 -16 -4 -37 -8 -45 -7 -8 1 -20 -3 -26
-7 -7 -5 -17 -7 -24 -6 -7 2 -15 -3 -17 -9 -3 -8 4 -13 16 -13 11 0 22 -4 25
-8 3 -5 36 -24 73 -42 37 -18 70 -35 72 -37 7 -5 -32 -32 -47 -33 -8 0 -26 -9
-42 -20 -15 -11 -30 -16 -34 -12 -4 4 -6 1 -4 -6 2 -9 -15 -20 -44 -29 -27 -9
-48 -19 -48 -22 0 -3 16 -17 35 -30 42 -28 44 -38 8 -45 -16 -3 -102 -19 -193
-37 -91 -17 -174 -33 -185 -36 -11 -2 -36 -6 -55 -9 -104 -12 -100 -19 25 -48
66 -15 134 -32 150 -36 17 -5 48 -13 70 -19 22 -5 61 -15 88 -22 26 -6 47 -12
47 -13 0 -1 4 -15 9 -32 12 -42 -14 -98 -69 -151 l-41 -40 38 -24 c29 -18 82
-61 65 -52 -4 1 -109 -40 -162 -65 -19 -9 -64 -33 -99 -54 -34 -21 -67 -38
-72 -38 -5 0 -9 -4 -9 -8 0 -4 -15 -16 -32 -27 -18 -10 -35 -21 -38 -24 -3 -3
-23 -19 -45 -36 -53 -39 -195 -177 -195 -190 0 -6 82 -11 223 -12 324 -2 446
-6 441 -14 -5 -9 -16 -137 -17 -204 -1 -27 -6 -53 -12 -57 -5 -4 -32 -8 -60
-9 l-50 0 50 -15 c28 -8 57 -18 65 -21 8 -3 25 -8 38 -10 12 -2 32 -7 45 -12
17 -6 9 -9 -33 -11 -30 -1 -64 -2 -75 -2 -11 0 -36 1 -55 1 -19 0 -46 1 -59 1
-22 0 -22 -13 0 -16 5 -1 10 -2 12 -4 1 -1 9 -3 17 -5 32 -6 195 -58 202 -64
4 -3 -28 -5 -70 -4 l-77 3 40 -15 c22 -9 51 -18 64 -21 50 -10 54 -18 29 -50
-38 -45 -58 -104 -62 -177 -1 -34 -7 -41 -51 -70 -28 -17 -52 -34 -55 -38 -3
-3 -16 -12 -29 -18 -13 -7 -19 -17 -15 -21 5 -5 56 -26 114 -48 58 -22 105
-44 105 -49 -1 -4 -20 -66 -43 -138 -39 -122 -95 -226 -159 -297 -14 -15 -11
-19 29 -39 23 -13 48 -24 54 -25 6 -1 24 -8 39 -16 l28 -15 -62 -64 c-65 -68
-68 -74 -48 -82 19 -7 64 -97 71 -144 l6 -41 -78 -31 c-48 -19 -69 -30 -54
-32 22 -2 40 -5 45 -8 1 -1 17 -4 35 -7 66 -8 66 -19 -3 -43 -36 -13 -65 -25
-65 -27 0 -1 35 -11 78 -20 l79 -17 -13 -61 c-7 -33 -15 -78 -18 -98 -3 -21
-7 -43 -8 -50 -3 -11 586 -13 3117 -13 1716 0 3127 1 3135 3 13 3 15 170 14
1440 -1 790 -3 1437 -4 1437 -2 0 -3 101 -4 224 l-1 223 -35 13 c-19 7 -44 16
-55 21 -11 4 -24 8 -30 9 -21 6 -393 128 -455 150 -58 20 -358 118 -370 121
-3 0 -12 3 -20 7 -32 13 -450 149 -455 148 -3 -1 -19 6 -35 14 -16 8 -31 15
-32 14 -5 -2 -122 34 -138 42 -17 9 -203 69 -231 74 -10 2 -26 8 -37 14 -10 5
-30 12 -43 15 -13 2 -42 11 -64 19 -50 20 -806 268 -822 271 -7 1 -16 5 -19 9
-4 4 -17 7 -29 7 -12 0 -24 3 -28 6 -9 10 -208 74 -238 78 -16 1 -61 -6 -101
-16 -40 -10 -84 -21 -98 -23 -14 -3 -34 -7 -45 -10 -28 -7 -205 -45 -235 -51
-14 -3 -41 -9 -60 -14 -19 -5 -53 -11 -75 -15 -22 -3 -56 -10 -75 -15 -19 -5
-51 -12 -70 -15 -19 -3 -51 -10 -70 -15 -65 -18 -69 -15 -58 33 5 23 11 53 13
67 2 14 9 48 15 75 17 71 23 115 15 115 -3 0 -14 -4 -24 -10 -10 -5 -30 -11
-44 -14 -19 -3 -24 -1 -20 10 4 11 -3 11 -43 -1 -27 -9 -65 -18 -84 -21 -19
-3 -42 -7 -50 -10 -8 -3 -46 -8 -85 -12 -198 -18 -402 3 -605 62 -30 9 -59 18
-65 19 -47 13 -122 41 -129 48 -6 5 -16 9 -23 9 -17 0 -227 102 -306 149 -109
64 -188 115 -215 139 -15 12 -51 39 -81 59 -47 33 -54 35 -63 20 -9 -18 -48
-24 -48 -8 0 22 -32 18 -58 -7z"/>
<path d="M1465 6760 c-45 -49 -151 -154 -167 -165 -30 -21 -75 -47 -113 -64
-22 -10 -60 -28 -83 -39 -35 -17 -79 -31 -112 -37 -3 0 -13 -5 -23 -11 -15 -9
-13 -12 19 -27 20 -10 34 -20 31 -23 -3 -3 -14 -2 -24 3 -31 15 -173 3 -256
-22 -68 -20 -191 -83 -229 -116 -52 -46 -148 -143 -148 -149 0 -4 -16 -24 -35
-46 -19 -21 -35 -44 -35 -50 0 -7 -7 -14 -15 -18 -8 -3 -15 -10 -15 -16 0 -6
-11 -26 -24 -43 -13 -18 -37 -57 -53 -87 -16 -30 -48 -86 -71 -124 -23 -37
-42 -72 -42 -76 0 -5 -3 -10 -7 -12 -18 -8 -62 -83 -54 -91 9 -9 70 49 71 66
0 4 5 7 10 7 6 0 22 10 35 23 41 38 52 46 110 77 122 66 318 93 485 66 63 -11
291 -12 335 -3 17 4 44 9 60 13 17 3 36 11 43 16 6 6 12 8 12 4 0 -9 143 46
158 61 8 7 18 11 23 8 5 -4 9 -1 9 4 0 6 5 11 11 11 18 0 51 43 39 50 -12 7
-10 23 13 100 9 30 19 66 21 80 3 14 5 25 6 25 1 0 3 9 5 19 2 11 6 29 9 40 3
12 5 23 4 26 -1 3 4 16 11 29 10 17 10 21 1 16 -9 -6 -9 -3 -2 11 14 27 25 92
37 229 8 83 8 79 6 85 -1 3 -4 32 -7 65 -2 33 -8 73 -12 89 l-8 29 -29 -33z"/>
<path d="M1319 4621 c-134 -135 -201 -195 -307 -275 -116 -88 -243 -172 -254
-168 -5 1 -8 -3 -8 -8 0 -6 -7 -10 -15 -10 -8 0 -15 -4 -15 -10 0 -5 -6 -10
-12 -10 -7 0 -39 -13 -71 -29 -32 -16 -91 -39 -131 -51 l-73 -23 29 -31 c45
-46 84 -140 93 -221 8 -68 11 -185 5 -185 -3 0 -6 -18 -7 -40 -2 -23 -10 -69
-19 -103 -9 -34 -18 -73 -21 -86 -2 -14 -7 -29 -11 -35 -4 -6 -7 -14 -8 -18
-1 -5 -2 -9 -4 -10 -1 -2 -3 -10 -5 -19 -6 -32 -78 -189 -86 -189 -5 0 -9 -6
-9 -14 0 -16 -117 -176 -168 -228 l-36 -38 39 0 c22 0 293 -1 603 -2 l562 -2
17 24 c10 14 16 25 14 25 -3 0 8 29 36 94 9 18 16 39 17 45 1 6 10 28 19 49
29 67 95 281 122 398 15 63 29 121 32 129 3 8 7 29 9 47 2 18 8 61 14 95 29
167 31 411 5 553 -10 57 -27 130 -32 145 -4 8 -7 17 -8 20 -16 64 -93 220
-126 256 -10 11 -19 25 -19 31 0 11 -25 25 -38 21 -4 -1 -64 -58 -133 -127z"/>
<path d="M2168 4418 c-37 -71 -45 -92 -62 -168 -16 -68 -20 -213 -9 -273 3
-13 33 -59 69 -102 35 -44 64 -86 64 -92 0 -7 4 -13 8 -13 4 0 15 -12 25 -27
9 -16 37 -50 62 -77 25 -28 45 -57 46 -65 1 -33 8 -74 15 -90 4 -9 8 -18 8
-21 1 -3 12 -25 24 -50 23 -45 102 -110 133 -110 8 0 19 -4 25 -10 11 -11 132
-19 170 -12 46 9 23 17 -49 17 -71 1 -167 22 -167 37 0 4 -5 8 -12 8 -24 0
-81 55 -100 96 -20 47 -32 124 -19 124 4 0 24 -19 43 -42 72 -86 84 -98 95
-98 6 0 16 -7 23 -15 7 -9 15 -14 17 -11 3 2 21 -2 41 -11 20 -8 45 -17 56
-19 31 -6 147 -6 176 0 14 3 38 9 54 12 l30 6 -36 22 c-94 56 -203 162 -233
225 -11 22 -23 41 -27 41 -3 0 -9 12 -12 28 -4 15 -9 38 -12 52 -9 33 -10 157
-2 195 11 56 40 130 69 178 16 26 29 49 29 51 0 2 -20 6 -45 9 -48 7 -207 56
-215 67 -3 4 -29 18 -57 31 -29 13 -53 27 -53 31 0 4 -12 14 -27 22 -16 8 -47
33 -71 56 -24 22 -45 40 -47 40 -3 0 -15 -19 -27 -42z"/>
<path d="M2795 3330 c-16 -7 -17 -9 -3 -9 9 -1 20 4 23 9 7 11 7 11 -20 0z"/>
</g>
</svg>
